<svg id="Слой_1" xmlns="http://www.w3.org/2000/svg" viewBox="0 0 16 16"><style>.st0{fill:#4b81bd}</style><path class="st0" d="M14.9 4c.8 1.2 1.1 2.5 1.1 4s-.3 2.8-1.1 4c-.7 1.2-1.7 2.2-2.9 2.9-1.2.8-2.5 1.1-4 1.1s-2.8-.3-4-1.1c-1.2-.7-2.2-1.7-2.9-2.9S0 9.5 0 8s.3-2.8 1.1-4C1.8 2.8 2.8 1.8 4 1.1S6.5 0 8 0s2.8.3 4 1.1c1.2.7 2.2 1.7 2.9 2.9zm-1.5 4c0-.2 0-.3-.2-.5l-.9-.9c-.1-.1-.3-.2-.5-.2s-.3 0-.5.2L9.4 8.5V3.3c0-.2 0-.3-.2-.5-.2-.1-.3-.1-.5-.1H7.4c-.2 0-.3 0-.5.2-.2.1-.2.3-.2.4v5.2L4.8 6.6c-.2-.2-.3-.2-.5-.2s-.3 0-.5.2l-.9.9c-.2.2-.2.3-.2.5s0 .3.2.5l3.7 3.7.9.9c.1.1.3.2.5.2s.3 0 .5-.2l.9-.9 3.7-3.7c.2-.2.3-.3.3-.5z"/></svg>