<svg id="Слой_1" xmlns="http://www.w3.org/2000/svg" viewBox="0 0 16 16"><style>.st0{fill:#4b81bd}</style><path class="st0" d="M14.9 4c.7 1.2 1.1 2.6 1.1 4s-.4 2.8-1.1 4c-.7 1.2-1.7 2.2-2.9 2.9-1.2.7-2.6 1.1-4 1.1s-2.8-.4-4-1.1c-1.2-.7-2.2-1.7-2.9-2.9S0 9.4 0 8s.4-2.8 1.1-4C1.8 2.8 2.8 1.8 4 1.1S6.6 0 8 0s2.8.4 4 1.1c1.2.7 2.2 1.7 2.9 2.9zm-4.1-.9C10 2.6 9 2.3 8 2.3s-2 .3-2.9.8c-.9.5-1.6 1.2-2 2C2.5 6 2.3 7 2.3 8s.2 2 .8 2.9c.5.9 1.2 1.6 2 2 .9.5 1.8.8 2.9.8s2-.2 2.9-.8c.9-.5 1.6-1.2 2-2 .5-.9.7-1.9.7-2.9s-.2-2-.8-2.9c-.4-.8-1.1-1.5-2-2zm.9 5.2c0 .1 0 .1-.1.2l-3.3 3.3c-.2.2-.2.2-.3.2-.1 0-.1 0-.2-.1L4.4 8.6c-.1-.1-.1-.3-.1-.4.1-.2.2-.2.4-.2h2V4.3c0-.1 0-.2.1-.2 0-.1.1-.1.2-.1h2c.1 0 .2 0 .2.1 0 0 .1.1.1.2V8h2c.1 0 .2 0 .2.1.1 0 .2.1.2.2z"/></svg>