<svg id="Слой_1" xmlns="http://www.w3.org/2000/svg" viewBox="0 0 16 16"><style>.st0{fill:#bcbcbc}</style><path class="st0" d="M14.9 4c.8 1.2 1.1 2.5 1.1 4 0 1.4-.3 2.8-1.1 4-.7 1.2-1.7 2.2-2.9 2.9S9.5 16 8 16c-1.4 0-2.8-.3-4-1.1S1.8 13.3 1.1 12C.3 10.8 0 9.5 0 8c0-1.4.3-2.8 1.1-4C1.8 2.8 2.7 1.8 4 1.1 5.2.3 6.5 0 8 0c1.4 0 2.8.3 4 1.1 1.3.7 2.2 1.7 2.9 2.9zm-2 6.8c.6-.8.8-1.8.8-2.8 0-1-.2-2-.8-2.8-.5-.9-1.2-1.5-2.1-2.1-.8-.5-1.7-.8-2.8-.8s-2 .2-2.8.8-1.5 1.2-2 2.1C2.6 6 2.4 7 2.4 8c0 1 .2 2 .8 2.8.5.9 1.2 1.5 2.1 2.1.8.5 1.7.8 2.7.8s2-.2 2.8-.8c.9-.5 1.7-1.2 2.1-2.1zm-1.5-.9l-1.5 1.5s-.1.1-.2.1-.2 0-.2-.1L8 10l-1.4 1.4s-.1.1-.2.1-.2 0-.2-.1L4.6 9.9s-.1-.1-.1-.2 0-.2.1-.2L6 8 4.6 6.5s-.1-.1-.1-.2 0-.2.1-.2l1.5-1.5s.1-.1.2-.1.2 0 .2.1L8 5.9l1.4-1.4s.1-.1.2-.1.2 0 .2.1L11.4 6s.1.1.1.2 0 .2-.1.2L10 8l1.4 1.4s.1.1.1.2 0 .2-.1.3z"/></svg>