<svg id="Слой_1" xmlns="http://www.w3.org/2000/svg" viewBox="0 0 16 16"><style>.st0{fill:#4b81bd}</style><path class="st0" d="M14.9 4c.7 1.2 1.1 2.6 1.1 4s-.4 2.8-1.1 4c-.7 1.2-1.7 2.2-2.9 2.9-1.2.7-2.6 1.1-4 1.1s-2.8-.4-4-1.1c-1.2-.7-2.2-1.7-2.9-2.9S0 9.4 0 8s.4-2.8 1.1-4C1.8 2.8 2.8 1.8 4 1.1S6.6 0 8 0s2.8.4 4 1.1c1.2.7 2.2 1.7 2.9 2.9zm-1.6 2.3c0-.2 0-.3-.2-.5l-1-1c-.1-.1-.3-.2-.5-.2s-.3 0-.5.2L7 9.1 4.7 6.8c-.2-.1-.3-.2-.5-.2s-.3 0-.5.2l-1 1c-.1.1-.1.2-.1.4s0 .3.2.5l3.8 3.8c.1.1.3.2.5.2s.3 0 .5-.2l5.7-5.7v-.5z"/></svg>