<svg id="Слой_1" xmlns="http://www.w3.org/2000/svg" viewBox="0 0 16 16"><style>.st0{fill:#4b81bd}</style><path class="st0" d="M14.9 4c.7 1.2 1.1 2.6 1.1 4s-.4 2.8-1.1 4c-.7 1.2-1.7 2.2-2.9 2.9-1.2.7-2.6 1.1-4 1.1s-2.8-.4-4-1.1c-1.2-.7-2.2-1.7-2.9-2.9C.4 10.8 0 9.4 0 8s.4-2.8 1.1-4C1.8 2.8 2.8 1.8 4 1.1S6.6 0 8 0s2.8.4 4 1.1c1.2.7 2.2 1.7 2.9 2.9zm-2 6.9c.5-.9.8-1.9.8-2.9s-.2-2-.8-2.9c-.5-.9-1.2-1.6-2-2C10 2.6 9 2.3 8 2.3s-2 .3-2.9.8c-.9.5-1.6 1.2-2 2C2.6 6 2.3 7 2.3 8s.2 2 .8 2.9c.5.9 1.2 1.6 2 2 .9.5 1.9.8 2.9.8s2-.2 2.9-.8c.8-.5 1.5-1.2 2-2zM9.3 4.3V9c0 .1 0 .2-.1.2 0 0-.1.1-.2.1H5.7c-.1 0-.2 0-.2-.1 0 0-.1-.1-.1-.2v-.7c0-.1 0-.2.1-.2 0-.1.1-.1.2-.1H8V4.3c0-.1 0-.2.1-.2 0-.1.1-.1.2-.1H9c.1 0 .2 0 .2.1.1 0 .1.1.1.2z"/></svg>