<svg id="Слой_1" xmlns="http://www.w3.org/2000/svg" viewBox="0 0 16 16"><style>.st0{fill:#4980c1}</style><path class="st0" d="M14.7 9.5c-.4 1.8-1.2 3.1-2.5 4S9.6 15 8 15c-.9 0-1.8-.2-2.6-.5-.9-.3-1.6-.8-2.2-1.4L2 14.2c-.1.1-.3.2-.4.2s-.3 0-.4-.2C1 14 1 14 1 13.9V9.7c0-.2 0-.3.2-.4.2-.2.3-.2.4-.2h4.1c.2 0 .3 0 .4.2.1.2.1.3.1.4 0 .2 0 .3-.2.4l-1.2 1.2c.4.4.9.7 1.5.9.5.2 1.1.3 1.8.3.9 0 1.6-.2 2.3-.6.7-.4 1.2-1 1.8-1.7.1-.1.2-.4.5-1 0-.1.1-.2.3-.2h1.8c.1 0 .2 0 .2.1-.3.2-.3.3-.3.4zm.3-7.4v4.1c0 .2 0 .3-.2.4-.1.1-.3.2-.4.2h-4.1c-.2 0-.3 0-.4-.2-.1-.1-.1-.2-.1-.4s0-.3.2-.4l1.2-1.2c-.9-.9-2-1.2-3.2-1.2-.9 0-1.6.1-2.3.6S4.5 4.8 4 5.5c-.1.1-.2.5-.5 1.1 0 .1-.1.2-.3.2H1.5c-.1 0-.2 0-.2-.1 0 0-.1-.1-.1-.2v-.1c.3-1.6 1-2.9 2.4-3.9S6.2 1 8 1c.9 0 1.8.2 2.6.5s1.6.8 2.3 1.4L14 1.8c.1-.1.3-.2.4-.2.2 0 .3 0 .4.2.1.1.2.2.2.3z"/></svg>