<svg xmlns="http://www.w3.org/2000/svg" xmlns:xlink="http://www.w3.org/1999/xlink" height="141" viewBox="0 0 24 141" width="24"><svg height="16" viewBox="0 0 16 16" width="16" x="4" y="4"><style>.st0{fill:#4b81bd}</style><path class="st0" d="M14.9 4c.8 1.2 1.1 2.5 1.1 4s-.3 2.8-1.1 4c-.7 1.2-1.7 2.2-2.9 2.9-1.2.8-2.5 1.1-4 1.1s-2.8-.3-4-1.1c-1.2-.7-2.2-1.7-2.9-2.9S0 9.5 0 8s.3-2.8 1.1-4C1.8 2.8 2.8 1.8 4 1.1S6.5 0 8 0s2.8.3 4 1.1c1.2.7 2.2 1.7 2.9 2.9zm-1.5 4c0-.2 0-.3-.2-.5l-.9-.9c-.1-.1-.3-.2-.5-.2s-.3 0-.5.2L9.4 8.5V3.3c0-.2 0-.3-.2-.5-.2-.1-.3-.1-.5-.1H7.4c-.2 0-.3 0-.5.2-.2.1-.2.3-.2.4v5.2L4.8 6.6c-.2-.2-.3-.2-.5-.2s-.3 0-.5.2l-.9.9c-.2.2-.2.3-.2.5s0 .3.2.5l3.7 3.7.9.9c.1.1.3.2.5.2s.3 0 .5-.2l.9-.9 3.7-3.7c.2-.2.3-.3.3-.5z"/></svg><svg height="16" viewBox="0 0 16 16" width="16" x="4" y="24"><style>.st0{fill:#4b81bd}</style><path class="st0" d="M14.9 4c.7 1.2 1.1 2.6 1.1 4s-.4 2.8-1.1 4c-.7 1.2-1.7 2.2-2.9 2.9-1.2.7-2.6 1.1-4 1.1s-2.8-.4-4-1.1c-1.2-.7-2.2-1.7-2.9-2.9S0 9.4 0 8s.4-2.8 1.1-4C1.8 2.8 2.8 1.8 4 1.1S6.6 0 8 0s2.8.4 4 1.1c1.2.7 2.2 1.7 2.9 2.9zm-4.1-.9C10 2.6 9 2.3 8 2.3s-2 .3-2.9.8c-.9.5-1.6 1.2-2 2C2.5 6 2.3 7 2.3 8s.2 2 .8 2.9c.5.9 1.2 1.6 2 2 .9.5 1.8.8 2.9.8s2-.2 2.9-.8c.9-.5 1.6-1.2 2-2 .5-.9.7-1.9.7-2.9s-.2-2-.8-2.9c-.4-.8-1.1-1.5-2-2zm.9 5.2c0 .1 0 .1-.1.2l-3.3 3.3c-.2.2-.2.2-.3.2-.1 0-.1 0-.2-.1L4.4 8.6c-.1-.1-.1-.3-.1-.4.1-.2.2-.2.4-.2h2V4.3c0-.1 0-.2.1-.2 0-.1.1-.1.2-.1h2c.1 0 .2 0 .2.1 0 0 .1.1.1.2V8h2c.1 0 .2 0 .2.1.1 0 .2.1.2.2z"/></svg><svg height="16" viewBox="0 0 16 16" width="16" x="4" y="44"><style>.st0{fill:#bcbcbc}</style><path class="st0" d="M14.9 4c.8 1.2 1.1 2.5 1.1 4 0 1.4-.3 2.8-1.1 4-.7 1.2-1.7 2.2-2.9 2.9S9.5 16 8 16c-1.4 0-2.8-.3-4-1.1S1.8 13.3 1.1 12C.3 10.8 0 9.5 0 8c0-1.4.3-2.8 1.1-4C1.8 2.8 2.7 1.8 4 1.1 5.2.3 6.5 0 8 0c1.4 0 2.8.3 4 1.1 1.3.7 2.2 1.7 2.9 2.9zm-2 6.8c.6-.8.8-1.8.8-2.8 0-1-.2-2-.8-2.8-.5-.9-1.2-1.5-2.1-2.1-.8-.5-1.7-.8-2.8-.8s-2 .2-2.8.8-1.5 1.2-2 2.1C2.6 6 2.4 7 2.4 8c0 1 .2 2 .8 2.8.5.9 1.2 1.5 2.1 2.1.8.5 1.7.8 2.7.8s2-.2 2.8-.8c.9-.5 1.7-1.2 2.1-2.1zm-1.5-.9l-1.5 1.5s-.1.1-.2.1-.2 0-.2-.1L8 10l-1.4 1.4s-.1.1-.2.1-.2 0-.2-.1L4.6 9.9s-.1-.1-.1-.2 0-.2.1-.2L6 8 4.6 6.5s-.1-.1-.1-.2 0-.2.1-.2l1.5-1.5s.1-.1.2-.1.2 0 .2.1L8 5.9l1.4-1.4s.1-.1.2-.1.2 0 .2.1L11.4 6s.1.1.1.2 0 .2-.1.2L10 8l1.4 1.4s.1.1.1.2 0 .2-.1.3z"/></svg><svg height="16" viewBox="0 0 16 16" width="16" x="4" y="64"><style>.st0{fill:#4b81bd}</style><path class="st0" d="M14.9 4c.7 1.2 1.1 2.6 1.1 4s-.4 2.8-1.1 4c-.7 1.2-1.7 2.2-2.9 2.9-1.2.7-2.6 1.1-4 1.1s-2.8-.4-4-1.1c-1.2-.7-2.2-1.7-2.9-2.9S0 9.4 0 8s.4-2.8 1.1-4C1.8 2.8 2.8 1.8 4 1.1S6.6 0 8 0s2.8.4 4 1.1c1.2.7 2.2 1.7 2.9 2.9zm-1.6 2.3c0-.2 0-.3-.2-.5l-1-1c-.1-.1-.3-.2-.5-.2s-.3 0-.5.2L7 9.1 4.7 6.8c-.2-.1-.3-.2-.5-.2s-.3 0-.5.2l-1 1c-.1.1-.1.2-.1.4s0 .3.2.5l3.8 3.8c.1.1.3.2.5.2s.3 0 .5-.2l5.7-5.7v-.5z"/></svg><svg height="16" viewBox="0 0 16 16" width="16" x="4" y="84"><style>.st0{fill:#4b81bd}</style><path class="st0" d="M14.9 4c.7 1.2 1.1 2.6 1.1 4s-.4 2.8-1.1 4c-.7 1.2-1.7 2.2-2.9 2.9-1.2.7-2.6 1.1-4 1.1s-2.8-.4-4-1.1c-1.2-.7-2.2-1.7-2.9-2.9C.4 10.8 0 9.4 0 8s.4-2.8 1.1-4C1.8 2.8 2.8 1.8 4 1.1S6.6 0 8 0s2.8.4 4 1.1c1.2.7 2.2 1.7 2.9 2.9zm-2 6.9c.5-.9.8-1.9.8-2.9s-.2-2-.8-2.9c-.5-.9-1.2-1.6-2-2C10 2.6 9 2.3 8 2.3s-2 .3-2.9.8c-.9.5-1.6 1.2-2 2C2.6 6 2.3 7 2.3 8s.2 2 .8 2.9c.5.9 1.2 1.6 2 2 .9.5 1.9.8 2.9.8s2-.2 2.9-.8c.8-.5 1.5-1.2 2-2zM9.3 4.3V9c0 .1 0 .2-.1.2 0 0-.1.1-.2.1H5.7c-.1 0-.2 0-.2-.1 0 0-.1-.1-.1-.2v-.7c0-.1 0-.2.1-.2 0-.1.1-.1.2-.1H8V4.3c0-.1 0-.2.1-.2 0-.1.1-.1.2-.1H9c.1 0 .2 0 .2.1.1 0 .1.1.1.2z"/></svg><svg height="16" viewBox="0 0 16 16" width="16" x="4" y="104"><style>.st0{fill:#4980c1}</style><path class="st0" d="M14.7 9.5c-.4 1.8-1.2 3.1-2.5 4S9.6 15 8 15c-.9 0-1.8-.2-2.6-.5-.9-.3-1.6-.8-2.2-1.4L2 14.2c-.1.1-.3.2-.4.2s-.3 0-.4-.2C1 14 1 14 1 13.9V9.7c0-.2 0-.3.2-.4.2-.2.3-.2.4-.2h4.1c.2 0 .3 0 .4.2.1.2.1.3.1.4 0 .2 0 .3-.2.4l-1.2 1.2c.4.4.9.7 1.5.9.5.2 1.1.3 1.8.3.9 0 1.6-.2 2.3-.6.7-.4 1.2-1 1.8-1.7.1-.1.2-.4.5-1 0-.1.1-.2.3-.2h1.8c.1 0 .2 0 .2.1-.3.2-.3.3-.3.4zm.3-7.4v4.1c0 .2 0 .3-.2.4-.1.1-.3.2-.4.2h-4.1c-.2 0-.3 0-.4-.2-.1-.1-.1-.2-.1-.4s0-.3.2-.4l1.2-1.2c-.9-.9-2-1.2-3.2-1.2-.9 0-1.6.1-2.3.6S4.5 4.8 4 5.5c-.1.1-.2.5-.5 1.1 0 .1-.1.2-.3.2H1.5c-.1 0-.2 0-.2-.1 0 0-.1-.1-.1-.2v-.1c.3-1.6 1-2.9 2.4-3.9S6.2 1 8 1c.9 0 1.8.2 2.6.5s1.6.8 2.3 1.4L14 1.8c.1-.1.3-.2.4-.2.2 0 .3 0 .4.2.1.1.2.2.2.3z"/></svg><svg height="12.3" viewBox="0 0 16 13" width="16" x="4" y="124"><style>.st0{fill:#4980c1}</style><path class="st0" d="M16 2.5c0 .3-.1.5-.3.7l-7.5 7.5L6.8 12c-.2.2-.4.3-.7.3s-.5-.1-.7-.3L4 10.6.3 6.9c-.2-.2-.3-.4-.3-.7s.1-.5.3-.7l1.4-1.4c.2-.2.4-.3.7-.3s.5.1.7.3l3 3L12.8.3c.3-.2.5-.3.8-.3s.5.1.7.3l1.4 1.4c.2.2.3.5.3.8z"/></svg></svg>