<?xml version="1.0" encoding="utf-8"?>
<!-- Generator: Adobe Illustrator 21.0.0, SVG Export Plug-In . SVG Version: 6.00 Build 0)  -->
<svg version="1.1" id="Слой_1" xmlns="http://www.w3.org/2000/svg" xmlns:xlink="http://www.w3.org/1999/xlink" x="0px" y="0px"
	 viewBox="0 0 16 12.3" style="enable-background:new 0 0 16 12.3;" xml:space="preserve">
<style type="text/css">
	.st0{fill:#4980C1;}
</style>
<path class="st0" d="M16,2.5c0,0.3-0.1,0.5-0.3,0.7l-7.5,7.5L6.8,12c-0.2,0.2-0.4,0.3-0.7,0.3S5.6,12.2,5.4,12L4,10.6L0.3,6.9
	C0.1,6.7,0,6.5,0,6.2s0.1-0.5,0.3-0.7l1.4-1.4c0.2-0.2,0.4-0.3,0.7-0.3s0.5,0.1,0.7,0.3l3,3l6.7-6.8C13.1,0.1,13.3,0,13.6,0
	s0.5,0.1,0.7,0.3l1.4,1.4C15.9,1.9,16,2.2,16,2.5z"/>
</svg>
