<?xml version="1.0" encoding="utf-8"?>
<!-- Generator: Adobe Illustrator 21.0.0, SVG Export Plug-In . SVG Version: 6.00 Build 0)  -->
<svg version="1.1" id="Слой_1" xmlns="http://www.w3.org/2000/svg" xmlns:xlink="http://www.w3.org/1999/xlink" x="0px" y="0px"
	 viewBox="0 0 16 16" style="enable-background:new 0 0 16 16;" xml:space="preserve">
<style type="text/css">
	.st0{fill:#4B81BD;}
</style>
<path class="st0" d="M14.9,4C15.6,5.2,16,6.6,16,8s-0.4,2.8-1.1,4c-0.7,1.2-1.7,2.2-2.9,2.9C10.8,15.6,9.4,16,8,16s-2.8-0.4-4-1.1
	c-1.2-0.7-2.2-1.7-2.9-2.9S0,9.4,0,8s0.4-2.8,1.1-4C1.8,2.8,2.8,1.8,4,1.1S6.6,0,8,0s2.8,0.4,4,1.1C13.2,1.8,14.2,2.8,14.9,4z
	 M10.8,3.1C10,2.6,9,2.3,8,2.3S6,2.6,5.1,3.1c-0.9,0.5-1.6,1.2-2,2C2.5,6,2.3,7,2.3,8s0.2,2,0.8,2.9c0.5,0.9,1.2,1.6,2,2
	C6,13.4,6.9,13.7,8,13.7s2-0.2,2.9-0.8c0.9-0.5,1.6-1.2,2-2C13.4,10,13.6,9,13.6,8s-0.2-2-0.8-2.9C12.4,4.3,11.7,3.6,10.8,3.1z
	 M11.7,8.3c0,0.1,0,0.1-0.1,0.2l-3.3,3.3C8.1,12,8.1,12,8,12c-0.1,0-0.1,0-0.2-0.1L4.4,8.6C4.3,8.5,4.3,8.3,4.3,8.2
	C4.4,8,4.5,8,4.7,8h2V4.3c0-0.1,0-0.2,0.1-0.2C6.8,4,6.9,4,7,4h2c0.1,0,0.2,0,0.2,0.1c0,0,0.1,0.1,0.1,0.2V8h2c0.1,0,0.2,0,0.2,0.1
	C11.6,8.1,11.7,8.2,11.7,8.3z"/>
</svg>
