<?xml version="1.0" encoding="utf-8"?>
<!-- Generator: Adobe Illustrator 21.0.0, SVG Export Plug-In . SVG Version: 6.00 Build 0)  -->
<svg version="1.1" id="Слой_1" xmlns="http://www.w3.org/2000/svg" xmlns:xlink="http://www.w3.org/1999/xlink" x="0px" y="0px"
	 viewBox="0 0 16 16" style="enable-background:new 0 0 16 16;" xml:space="preserve">
<style type="text/css">
	.st0{fill:#4B81BD;}
</style>
<g>
	<path class="st0" d="M14.9,4C15.7,5.2,16,6.5,16,8s-0.3,2.8-1.1,4c-0.7,1.2-1.7,2.2-2.9,2.9C10.8,15.7,9.5,16,8,16s-2.8-0.3-4-1.1
		c-1.2-0.7-2.2-1.7-2.9-2.9S0,9.5,0,8s0.3-2.8,1.1-4C1.8,2.8,2.8,1.8,4,1.1S6.5,0,8,0s2.8,0.3,4,1.1C13.2,1.8,14.2,2.8,14.9,4z
		 M13.4,8c0-0.2,0-0.3-0.2-0.5l-0.9-0.9c-0.1-0.1-0.3-0.2-0.5-0.2s-0.3,0-0.5,0.2L9.4,8.5V3.3c0-0.2,0-0.3-0.2-0.5
		C9,2.7,8.9,2.7,8.7,2.7H7.4c-0.2,0-0.3,0-0.5,0.2C6.7,3,6.7,3.2,6.7,3.3v5.2L4.8,6.6C4.6,6.4,4.5,6.4,4.3,6.4c-0.2,0-0.3,0-0.5,0.2
		L2.9,7.5C2.7,7.7,2.7,7.8,2.7,8c0,0.2,0,0.3,0.2,0.5l3.7,3.7l0.9,0.9c0.1,0.1,0.3,0.2,0.5,0.2c0.2,0,0.3,0,0.5-0.2l0.9-0.9l3.7-3.7
		C13.3,8.3,13.4,8.2,13.4,8z"/>
</g>
</svg>
