<?xml version="1.0" encoding="utf-8"?>
<!-- Generator: Adobe Illustrator 21.0.0, SVG Export Plug-In . SVG Version: 6.00 Build 0)  -->
<svg version="1.1" id="Слой_1" xmlns="http://www.w3.org/2000/svg" xmlns:xlink="http://www.w3.org/1999/xlink" x="0px" y="0px"
	 viewBox="0 0 16 16" style="enable-background:new 0 0 16 16;" xml:space="preserve">
<style type="text/css">
	.st0{fill:#BCBCBC;}
</style>
<path class="st0" d="M14.9,4C15.7,5.2,16,6.5,16,8c0,1.4-0.3,2.8-1.1,4c-0.7,1.2-1.7,2.2-2.9,2.9S9.5,16,8,16c-1.4,0-2.8-0.3-4-1.1
	S1.8,13.3,1.1,12C0.3,10.8,0,9.5,0,8c0-1.4,0.3-2.8,1.1-4C1.8,2.8,2.7,1.8,4,1.1C5.2,0.3,6.5,0,8,0c1.4,0,2.8,0.3,4,1.1
	C13.3,1.8,14.2,2.8,14.9,4z M12.9,10.8C13.5,10,13.7,9,13.7,8c0-1-0.2-2-0.8-2.8c-0.5-0.9-1.2-1.5-2.1-2.1C10,2.6,9.1,2.3,8,2.3
	s-2,0.2-2.8,0.8S3.7,4.3,3.2,5.2C2.6,6,2.4,7,2.4,8c0,1,0.2,2,0.8,2.8c0.5,0.9,1.2,1.5,2.1,2.1C6.1,13.4,7,13.7,8,13.7
	s2-0.2,2.8-0.8C11.7,12.4,12.5,11.7,12.9,10.8z M11.4,9.9l-1.5,1.5c0,0-0.1,0.1-0.2,0.1c-0.1,0-0.2,0-0.2-0.1L8,10l-1.4,1.4
	c0,0-0.1,0.1-0.2,0.1s-0.2,0-0.2-0.1L4.6,9.9c0,0-0.1-0.1-0.1-0.2s0-0.2,0.1-0.2L6,8L4.6,6.5c0,0-0.1-0.1-0.1-0.2
	c0-0.1,0-0.2,0.1-0.2l1.5-1.5c0,0,0.1-0.1,0.2-0.1s0.2,0,0.2,0.1L8,5.9l1.4-1.4c0,0,0.1-0.1,0.2-0.1c0.1,0,0.2,0,0.2,0.1L11.4,6
	c0,0,0.1,0.1,0.1,0.2c0,0.1,0,0.2-0.1,0.2L10,8l1.4,1.4c0,0,0.1,0.1,0.1,0.2S11.5,9.8,11.4,9.9z"/>
</svg>
