<?xml version="1.0" encoding="utf-8"?>
<!-- Generator: Adobe Illustrator 21.0.0, SVG Export Plug-In . SVG Version: 6.00 Build 0)  -->
<svg version="1.1" id="Слой_1" xmlns="http://www.w3.org/2000/svg" xmlns:xlink="http://www.w3.org/1999/xlink" x="0px" y="0px"
	 viewBox="0 0 16 16" style="enable-background:new 0 0 16 16;" xml:space="preserve">
<style type="text/css">
	.st0{fill:#4B81BD;}
</style>
<path class="st0" d="M14.9,4C15.6,5.2,16,6.6,16,8s-0.4,2.8-1.1,4c-0.7,1.2-1.7,2.2-2.9,2.9C10.8,15.6,9.4,16,8,16s-2.8-0.4-4-1.1
	c-1.2-0.7-2.2-1.7-2.9-2.9S0,9.4,0,8s0.4-2.8,1.1-4C1.8,2.8,2.8,1.8,4,1.1S6.6,0,8,0s2.8,0.4,4,1.1C13.2,1.8,14.2,2.8,14.9,4z
	 M13.3,6.3c0-0.2,0-0.3-0.2-0.5l-1-1c-0.1-0.1-0.3-0.2-0.5-0.2c-0.2,0-0.3,0-0.5,0.2L7,9.1L4.7,6.8C4.5,6.7,4.4,6.6,4.2,6.6
	c-0.2,0-0.3,0-0.5,0.2l-1,1C2.6,7.9,2.6,8,2.6,8.2c0,0.2,0,0.3,0.2,0.5l3.8,3.8c0.1,0.1,0.3,0.2,0.5,0.2c0.2,0,0.3,0,0.5-0.2
	l5.7-5.7C13.3,6.7,13.3,6.5,13.3,6.3z"/>
</svg>
