<?xml version="1.0" encoding="utf-8"?>
<!-- Generator: Adobe Illustrator 21.0.0, SVG Export Plug-In . SVG Version: 6.00 Build 0)  -->
<svg version="1.1" id="Слой_1" xmlns="http://www.w3.org/2000/svg" xmlns:xlink="http://www.w3.org/1999/xlink" x="0px" y="0px"
	 viewBox="0 0 16 16" style="enable-background:new 0 0 16 16;" xml:space="preserve">
<style type="text/css">
	.st0{fill:#4B81BD;}
</style>
<path class="st0" d="M14.9,4C15.6,5.2,16,6.6,16,8s-0.4,2.8-1.1,4c-0.7,1.2-1.7,2.2-2.9,2.9C10.8,15.6,9.4,16,8,16s-2.8-0.4-4-1.1
	c-1.2-0.7-2.2-1.7-2.9-2.9C0.4,10.8,0,9.4,0,8s0.4-2.8,1.1-4C1.8,2.8,2.8,1.8,4,1.1S6.6,0,8,0s2.8,0.4,4,1.1
	C13.2,1.8,14.2,2.8,14.9,4z M12.9,10.9C13.4,10,13.7,9,13.7,8s-0.2-2-0.8-2.9c-0.5-0.9-1.2-1.6-2-2C10,2.6,9,2.3,8,2.3
	S6,2.6,5.1,3.1c-0.9,0.5-1.6,1.2-2,2C2.6,6,2.3,7,2.3,8s0.2,2,0.8,2.9c0.5,0.9,1.2,1.6,2,2C6,13.4,7,13.7,8,13.7s2-0.2,2.9-0.8
	C11.7,12.4,12.4,11.7,12.9,10.9z M9.3,4.3V9c0,0.1,0,0.2-0.1,0.2c0,0-0.1,0.1-0.2,0.1H5.7c-0.1,0-0.2,0-0.2-0.1c0,0-0.1-0.1-0.1-0.2
	V8.3c0-0.1,0-0.2,0.1-0.2C5.5,8,5.6,8,5.7,8H8V4.3c0-0.1,0-0.2,0.1-0.2C8.1,4,8.2,4,8.3,4H9c0.1,0,0.2,0,0.2,0.1
	C9.3,4.1,9.3,4.2,9.3,4.3z"/>
</svg>
