<?xml version="1.0" encoding="utf-8"?>
<!-- Generator: Adobe Illustrator 21.0.0, SVG Export Plug-In . SVG Version: 6.00 Build 0)  -->
<svg version="1.1" id="Слой_1" xmlns="http://www.w3.org/2000/svg" xmlns:xlink="http://www.w3.org/1999/xlink" x="0px" y="0px"
	 viewBox="0 0 16 16" style="enable-background:new 0 0 16 16;" xml:space="preserve">
<style type="text/css">
	.st0{fill:#4980C1;}
</style>
<path class="st0" d="M14.7,9.5L14.7,9.5c-0.4,1.8-1.2,3.1-2.5,4S9.6,15,8,15c-0.9,0-1.8-0.2-2.6-0.5c-0.9-0.3-1.6-0.8-2.2-1.4
	L2,14.2c-0.1,0.1-0.3,0.2-0.4,0.2s-0.3,0-0.4-0.2C1,14,1,14,1,13.9V9.7c0-0.2,0-0.3,0.2-0.4c0.2-0.2,0.3-0.2,0.4-0.2h4.1
	c0.2,0,0.3,0,0.4,0.2c0.1,0.2,0.1,0.3,0.1,0.4c0,0.2,0,0.3-0.2,0.4l-1.2,1.2c0.4,0.4,0.9,0.7,1.5,0.9c0.5,0.2,1.1,0.3,1.8,0.3
	c0.9,0,1.6-0.2,2.3-0.6c0.7-0.4,1.2-1,1.8-1.7c0.1-0.1,0.2-0.4,0.5-1c0-0.1,0.1-0.2,0.3-0.2h1.8c0.1,0,0.2,0,0.2,0.1
	C14.7,9.3,14.7,9.4,14.7,9.5z M15,2.1v4.1c0,0.2,0,0.3-0.2,0.4c-0.1,0.1-0.3,0.2-0.4,0.2h-4.1c-0.2,0-0.3,0-0.4-0.2
	C9.8,6.5,9.8,6.4,9.8,6.2c0-0.2,0-0.3,0.2-0.4l1.2-1.2C10.3,3.7,9.2,3.4,8,3.4C7.1,3.4,6.4,3.5,5.7,4S4.5,4.8,4,5.5
	C3.9,5.6,3.8,6,3.5,6.6c0,0.1-0.1,0.2-0.3,0.2H1.5c-0.1,0-0.2,0-0.2-0.1c0,0-0.1-0.1-0.1-0.2V6.4c0.3-1.6,1-2.9,2.4-3.9S6.2,1,8,1
	c0.9,0,1.8,0.2,2.6,0.5s1.6,0.8,2.3,1.4L14,1.8c0.1-0.1,0.3-0.2,0.4-0.2c0.2,0,0.3,0,0.4,0.2C14.9,1.9,15,2,15,2.1z"/>
</svg>
